<?xml version="1.0" encoding="UTF-8" standalone="no"?>
<svg width="50" height="50" viewBox="0 0 50 50" fill="none" xmlns="http://www.w3.org/2000/svg">
    <path
        d="M6.70765 8.91735C6.09745 8.30716 6.09745 7.31784 6.70765 6.70765C7.31784 6.09745 8.30716 6.09745 8.91736 6.70765L25 22.7903L41.0826 6.70765C41.6928 6.09745 42.6822 6.09745 43.2924 6.70765C43.9026 7.31784 43.9026 8.30716 43.2924 8.91735L27.2097 25L43.2924 41.0826C43.9025 41.6928 43.9025 42.6822 43.2924 43.2924C42.6822 43.9026 41.6928 43.9026 41.0826 43.2924L25 27.2097L8.91736 43.2924C8.30716 43.9026 7.31784 43.9026 6.70765 43.2924C6.09745 42.6822 6.09745 41.6928 6.70765 41.0826L22.7903 25L6.70765 8.91735Z"
        fill="white" stroke="white" stroke-linecap="round" stroke-linejoin="round" />
</svg>